<svg xmlns="http://www.w3.org/2000/svg" width="48" height="40" viewBox="-24 -20 48 40">
  <ellipse cy="15" rx="23" ry="4" fill="#0b1519"/>
  <path d="M-21 12v-21l12-3 1-5 12 2v8l10 3 6 10v6z" fill="#66726d" stroke="#172522" stroke-width="1.8" stroke-linejoin="round"/>
  <path d="M-21-9l12-3 1-5 12 2-4 4-8-1-1 4-12 3zM4-7l10 3 6 10-7-1-4-8-5 1z" fill="#8a9384"/>
  <path d="M-20 0h32M-20 8h38M-9-9v9M1 0v8M-9 8v4M11 8v4" fill="none" stroke="#3f4d49" stroke-width="2"/>
  <path d="M-15-4h5M-7 4h5M4 10h4" fill="none" stroke="#899584" stroke-width="1.5" stroke-linecap="round"/>
  <path d="M-23 15l3-5 7 2 1 4zM14 15l3-4 6 2-1 3z" fill="#596963" stroke="#172522" stroke-width="1.3" stroke-linejoin="round"/>
  <path d="M-20 12l5 1-1 3h-6M9 10l4 1 1 3-5 1" fill="#355744"/>
</svg>
