<svg xmlns="http://www.w3.org/2000/svg" width="256" height="256" viewBox="0 0 256 256">
<g id="arm_front_upper" stroke="#29180f" stroke-width="7" stroke-linecap="round" stroke-linejoin="round" data-pivot-x="171" data-pivot-y="130">
    <path d="M182 89 200 91 220 112 226 138 214 161 193 169 174 154 164 130 165 107Z" fill="#bba58b" />
    <path d="m171 112 15-14 17 9 12 24-26 12-17-13Z" fill="#dfcbae" stroke="none" />
    <path d="m191 139 30-14 5 13-12 23-21 8-19-15-6-16Z" fill="#887562" stroke="none" />
    <g data-moss="shoulder_front" stroke="none">
      <path d="m184 96 14 1 15 16-2 13-10-6-5 13-9-13-11 3-4-15Z" fill="#88b96b" data-mask="true" />
      <path d="m185 110 6 4 10 6 10 6-10-6-5 13-9-13-11 3-4-8Z" fill="#668b50" />
    </g>
  </g>
</svg>
