<svg xmlns="http://www.w3.org/2000/svg" width="256" height="256" viewBox="0 0 256 256">
  <title>Орк · уровень 5 · preview only</title>
  <g id="orc_lv5_arm_back" stroke="#29180f" stroke-width="7" stroke-linecap="round" stroke-linejoin="round" data-pivot-x="75" data-pivot-y="148">
    <path d="M70 128Q90 128 90 149L73 178 66 201Q58 217 42 212L28 206Q21 196 28 179L43 150Z" fill="#7fa443" />
    <path d="m57 151 20-9-7 24-17 23-5 18-13-4 4-21Z" fill="#5f8134" stroke="none" />
    <g data-equipment="bracer_back">
      <path d="m33 174 39 11-8 19-39-12Z" fill="#b66dea" stroke-width="5" data-mask="true" />
      <path d="m34 180 31 9-3 7-30-9Z" fill="#d781ff" stroke="none" />
    </g>
    <path d="m50 198-5 10" fill="none" stroke-width="5" />
    <path d="m41 110 31-3 24 26-16 28-26-6-27-22Z" fill="#895334" stroke-width="6" />
    <path d="m49 117 22-2 16 20-13 15-31-13Z" fill="#8d8981" stroke-width="5" />
    <path d="m53 119 15-2 10 12-7 7-21-8Z" fill="#c5c0b6" stroke="none" />
    <path d="M35 124 33 91 59 112Q52 129 35 124Z" fill="#f3e7ce" stroke-width="6" />
    <path d="m39 104 15 10-10 6Z" fill="#d9c39e" stroke="none" />
    <path d="m58 112 10-29 13 30Q70 120 58 112Z" fill="#f3e7ce" stroke-width="6" />
  <g stroke="#29180f" stroke-width="7" stroke-linecap="round" stroke-linejoin="round" id="orc_lv5_reinforced_pauldron" data-parent-part="arm_back">
      <path d="m36 115 37-8 24 28-20 27-37-12-14-17Z" fill="#738587" stroke-width="6" />
      <path d="m42 122 28-7 15 20-14 16-28-10Z" fill="#b9c9c3" stroke="none" /></g><g stroke="#29180f" stroke-width="7" stroke-linecap="round" stroke-linejoin="round" id="orc_lv5_metal_bracer_back" data-parent-part="arm_back"><path d="m31 174 40 11-9 21-39-13Z" fill="#738587" stroke-width="5" /><path d="m32 180 26 8" stroke="#b9c9c3" stroke-width="5" /><path d="m29 190 28 8" stroke="#b66dea" stroke-width="4" /></g><g stroke="#29180f" stroke-width="7" stroke-linecap="round" stroke-linejoin="round" id="orc_lv5_round_shield" data-parent-part="arm_back">
          <ellipse cx="46" cy="188" rx="34" ry="37" fill="#738587" stroke-width="6" />
          <ellipse cx="46" cy="188" rx="25" ry="28" fill="#4c5a5d" stroke-width="4" />
          <path d="M25 188H67M46 164V212" stroke="#b66dea" stroke-width="7" />
          <circle cx="46" cy="188" r="10" fill="#b9c9c3" stroke-width="5" /><path d="M17 158 22 151 32 158 M61 158 72 151 77 164 M17 204 24 215 30 209 M63 210 72 215 79 200" fill="#b9c9c3" stroke-width="5" /></g></g>
  <g id="orc_lv5_leg_left" stroke="#29180f" stroke-width="7" stroke-linecap="round" stroke-linejoin="round" data-pivot-x="102" data-pivot-y="207">
    <path d="M91 191Q112 186 121 200L117 220 118 234Q107 243 83 237L82 230 87 207Z" fill="#7fa443" />
    <path d="m101 198 13 3-9 27-15 7-1-14Z" fill="#5f8134" stroke="none" />
    <g data-equipment="boot_left">
      <path d="m86 216 31-2 4 23Q102 242 81 237L80 230Z" fill="#b66dea" stroke-width="6" data-mask="true" />
      <path d="m88 221 25-3 2 7-30 4Z" fill="#d781ff" stroke="none" />
    </g>
  </g>
  <g id="orc_lv5_leg_right" stroke="#29180f" stroke-width="7" stroke-linecap="round" stroke-linejoin="round" data-pivot-x="147" data-pivot-y="207">
    <path d="M135 193Q152 185 161 200L164 218 174 232 170 238Q150 241 133 234L131 213Z" fill="#7fa443" />
    <path d="m148 197 10 5 2 24-15 9-10-6 8-13Z" fill="#5f8134" stroke="none" />
    <g data-equipment="boot_right">
      <path d="m134 217 30-2 12 21Q155 242 133 236L132 229Z" fill="#b66dea" stroke-width="6" data-mask="true" />
      <path d="m140 221 20-3 5 8-26 4Z" fill="#d781ff" stroke="none" />
    </g>
  </g>
  <g id="orc_lv5_body" stroke="#29180f" stroke-width="7" stroke-linecap="round" stroke-linejoin="round" data-pivot-x="126" data-pivot-y="176">
    <path d="M89 132Q129 120 164 134L180 163 174 191Q154 215 90 201L78 173Z" fill="#7fa443" />
    <path d="m89 149 24 15 30 2 21-19 9 23-21 23-47-3-22-19Z" fill="#5f8134" stroke="none" />
    <path d="m100 136 24-6 30 7-10 10-27-2Z" fill="#a0bf60" stroke="none" />
    <g data-equipment="loincloth">
      <path d="M88 188Q126 199 164 188L174 211 154 207 131 222 113 209 92 215 83 200Z" fill="#b66dea" stroke-width="6" data-mask="true" />
      <path d="m108 199 21 4 26-6-24 19Z" fill="#d781ff" stroke="none" />
    </g>
    <path d="m91 132 77 45-11 16-77-45Z" fill="#895334" stroke-width="5" />
    <path d="m99 140 58 35-5 5-60-35Z" fill="#a46b42" stroke="none" />
    <path d="m119 148 12-12 19 15-13 15Z" fill="#c5c0b6" stroke-width="5" />
    <path d="m130 146 8 6-3 4-8-6Z" fill="#613821" stroke="none" />
    <path d="M84 181Q126 192 174 181L175 197Q127 207 83 197Z" fill="#613821" stroke-width="5" />
    <path d="M90 187Q104 191 118 190L117 196 89 191Z" fill="#895334" stroke="none" />
    <rect x="121" y="184" width="24" height="20" rx="3" fill="#c5c0b6" stroke-width="5" />
    <rect x="128" y="190" width="10" height="8" rx="1" fill="#613821" stroke="none" />
  <g stroke="#29180f" stroke-width="7" stroke-linecap="round" stroke-linejoin="round" id="orc_lv5_breastplate" data-parent-part="body">
          <path d="m97 145 54-2 20 20-10 24-67-1-7-24Z" fill="#738587" stroke-width="6" />
          <path d="m102 150 43-1 15 13-30 10-32-11Z" fill="#b9c9c3" stroke="none" />
          <path d="m103 178 42 0" stroke="#b66dea" stroke-width="6" /></g></g>
  <g id="orc_lv5_axe" stroke="#29180f" stroke-width="7" stroke-linecap="round" stroke-linejoin="round" data-pivot-x="203" data-pivot-y="184">
    <path d="m217 88 13 5-29 136Q198 240 184 232L182 225Z" fill="#895334" stroke-width="6" />
    <path d="m221 96 4 2-28 127-6 4Z" fill="#a46b42" stroke="none" />
    <path d="m212 118 13 4-4 19-14-4Z" fill="#f3e7ce" stroke-width="4" />
    <path d="m210 127 13 4" fill="none" stroke="#d9c39e" stroke-width="4" />
    <g stroke="#29180f" stroke-width="7" stroke-linecap="round" stroke-linejoin="round" id="orc_lv5_tier_blade" data-parent-part="axe"><g stroke-width="6"><path d="m220 37 10 3-8 63-13-4Z" fill="#895334" stroke-width="6" />
          <path d="M219 16 242 10 251 34 245 69 232 81 227 60 217 52 203 67 177 78 171 35 180 10 209 15Z" fill="#738587" />
          <path d="m240 19 5 18-6 26-5 7-1-19-10-8 9-7Z M182 20l-5 17 3 23 8-6 6-14 10-8-11-8Z" fill="#b9c9c3" stroke="none" />
          <path d="m214 16 13 0-5 35-13 4Z" fill="#b66dea" stroke-width="5" /><path d="m174 38-9-14 9-12 M249 41l3-12-6-10" fill="#b9c9c3" stroke-width="5" /></g></g></g>
  <g id="orc_lv5_arm_front" stroke="#29180f" stroke-width="7" stroke-linecap="round" stroke-linejoin="round" data-pivot-x="171" data-pivot-y="150">
    <path d="M160 136Q174 130 185 143L193 165 207 177Q215 190 205 200 195 206 183 193L165 178Q153 160 160 136Z" fill="#7fa443" />
    <path d="m172 145 9 3 3 22 15 10-4 17-16-13-17-28Z" fill="#5f8134" stroke="none" />
    <g data-equipment="bracer_front">
      <path d="m170 167 25-5 8 16-27 10Z" fill="#b66dea" stroke-width="5" data-mask="true" />
      <path d="m176 171 17-4 4 7-19 6Z" fill="#d781ff" stroke="none" />
    </g>
    <path d="m199 181-4 10" fill="none" stroke-width="5" />
    <path d="m161 124 25-4 17 24-8 17-23 3-22-23Z" fill="#895334" stroke-width="6" />
    <path d="m164 130 19-4 13 19-7 8-15 2-14-15Z" fill="#8d8981" stroke-width="5" />
    <path d="m168 132 12-2 8 11-8 6-14-8Z" fill="#c5c0b6" stroke="none" />
    <path d="m178 131 16-24 6 28Q190 140 178 131Z" fill="#f3e7ce" stroke-width="6" />
  <g stroke="#29180f" stroke-width="7" stroke-linecap="round" stroke-linejoin="round" id="orc_lv5_metal_bracer_front" data-parent-part="arm_front"><path d="m169 168 28-7 9 18-28 11Z" fill="#738587" stroke-width="5" /><path d="m178 172 17-5" stroke="#b9c9c3" stroke-width="5" /><path d="m180 183 15-5" stroke="#b66dea" stroke-width="4" /></g></g>
  <g id="orc_lv5_head" stroke="#29180f" stroke-width="7" stroke-linecap="round" stroke-linejoin="round" data-pivot-x="128" data-pivot-y="142">
    <path d="M81 75 56 58 59 86Q65 104 83 106L92 88Z" fill="#7fa443" />
    <path d="m64 70 19 13-3 12-12-11Z" fill="#5f8134" stroke="none" />
    <path d="m175 82 20-15-5 22Q185 104 174 107L167 93Z" fill="#7fa443" />
    <path d="M83 47Q112 27 141 33 173 36 181 61L187 98Q187 129 168 143 147 159 111 153L85 142Q65 127 66 104L68 73Z" fill="#7fa443" />
    <path d="M87 49Q112 33 139 40L159 53 137 50 115 42 98 60Z" fill="#a0bf60" stroke="none" />
    <path d="m78 73 12 13-6 26 9 21 22 16-25-12-15-14-4-19Z M178 90l5 13-4 24-20 20-17 6 16-19Z" fill="#5f8134" stroke="none" />
    <ellipse cx="105" cy="103" rx="9" ry="12" fill="#29180f" stroke="none" />
    <ellipse cx="154" cy="103" rx="8" ry="12" fill="#29180f" stroke="none" />
    <path d="m89 87 29 12 m26-1 24-12" fill="none" stroke-width="6" />
    <path d="M124 91Q130 87 136 91L139 115 128 121 119 114Z" fill="#5f8134" stroke="none" />
    <path d="m102 131Q128 142 160 130" fill="none" stroke-width="7" />
    <path d="m102 138 9-17 10 21Z" fill="#f3e7ce" stroke-width="5" />
    <path d="m146 142 12-21 7 19Z" fill="#f3e7ce" stroke-width="5" />
    <path d="M102 143Q127 135 162 142L156 149Q133 158 111 149Z" fill="#7fa443" stroke="none" />
  <g stroke="#29180f" stroke-width="7" stroke-linecap="round" stroke-linejoin="round" id="orc_lv5_open_helmet" data-parent-part="head">
          <path d="M70 83 73 58 90 37 116 27 145 31 172 49 181 79 167 81 153 63 112 61 88 83Z" fill="#738587" stroke-width="6" />
          <path d="m86 55 15-13 21-8 19 4 18 11-21-4-22-1-24 16Z" fill="#b9c9c3" stroke="none" />
          <path d="m111 28 20 1 7 34-23-3Z" fill="#b66dea" stroke-width="5" />
          <path d="m71 57-15-14 2 30 17 10 M174 57l15-14-2 30-9 9" fill="#b9c9c3" stroke-width="6" /></g></g>
</svg>
