<svg xmlns="http://www.w3.org/2000/svg" width="256" height="256" viewBox="0 0 256 256"><title>orc · weapon_lv5 · rigid equipment part</title><g id="axe" stroke="#29180f" stroke-width="7" stroke-linecap="round" stroke-linejoin="round" data-pivot-x="203" data-pivot-y="184">
    <path d="m217 88 13 5-29 136Q198 240 184 232L182 225Z" fill="#895334" stroke-width="6" />
    <path d="m221 96 4 2-28 127-6 4Z" fill="#a46b42" stroke="none" />
    <path d="m212 118 13 4-4 19-14-4Z" fill="#f3e7ce" stroke-width="4" />
    <path d="m210 127 13 4" fill="none" stroke="#d9c39e" stroke-width="4" />
    <g stroke="#29180f" stroke-width="7" stroke-linecap="round" stroke-linejoin="round" id="tier_blade" data-parent-part="axe"><g stroke-width="6"><path d="m220 37 10 3-8 63-13-4Z" fill="#895334" stroke-width="6" />
          <path d="M219 16 242 10 251 34 245 69 232 81 227 60 217 52 203 67 177 78 171 35 180 10 209 15Z" fill="#738587" />
          <path d="m240 19 5 18-6 26-5 7-1-19-10-8 9-7Z M182 20l-5 17 3 23 8-6 6-14 10-8-11-8Z" fill="#b9c9c3" stroke="none" />
          <path d="m214 16 13 0-5 35-13 4Z" fill="#88b96b" stroke-width="5" /><path d="m174 38-9-14 9-12 M249 41l3-12-6-10" fill="#b9c9c3" stroke-width="5" /></g></g></g>
  </svg>
